<?xml version="1.0" standalone="no"?>
<!DOCTYPE svg PUBLIC "-//W3C//DTD SVG 20010904//EN"
 "http://www.w3.org/TR/2001/REC-SVG-20010904/DTD/svg10.dtd">
<svg version="1.0" xmlns="http://www.w3.org/2000/svg"
 width="244.000000pt" height="200.000000pt" viewBox="0 0 244.000000 200.000000"
 preserveAspectRatio="xMidYMid meet">

<g transform="translate(0.000000,200.000000) scale(0.100000,-0.100000)"
fill="#000000" stroke="none">
<path d="M979 1858 c-23 -40 -53 -93 -68 -117 l-25 -45 -19 63 c-14 49 -21 61
-35 57 -9 -3 -38 -10 -64 -17 -48 -11 -56 -21 -39 -48 7 -11 10 -9 15 7 14 43
70 32 64 -12 -2 -17 -10 -21 -36 -21 -32 0 -33 -1 -28 -29 20 -96 22 -100 101
-145 114 -64 130 -107 55 -146 -35 -18 -38 -37 -10 -65 41 -41 97 -16 85 38
-7 34 14 62 47 62 12 0 51 -18 89 -39 l68 -39 35 68 c20 37 36 73 36 79 0 6
-19 11 -44 11 -47 0 -61 10 -71 52 -9 35 19 83 59 102 36 18 60 8 84 -35 10
-16 22 -29 28 -29 12 0 74 89 74 106 0 8 -145 96 -317 192 l-42 23 -42 -73z"/>
<path d="M1403 1353 c-8 -3 -13 -24 -13 -54 0 -45 -2 -49 -27 -56 -21 -5 -44
2 -96 30 -38 21 -73 35 -77 32 -13 -8 -58 -89 -65 -118 -7 -26 -6 -27 39 -27
43 0 48 -3 62 -34 15 -31 15 -36 -1 -70 -20 -41 -66 -70 -95 -61 -10 3 -29 22
-40 41 -12 18 -25 34 -30 34 -5 0 -25 -28 -46 -62 -20 -35 -43 -70 -51 -79
-15 -18 -7 -53 12 -45 7 2 151 41 321 87 170 45 311 84 313 85 10 8 -27 37
-99 78 -105 61 -115 89 -50 132 22 15 40 31 40 36 0 5 -11 20 -25 33 -23 24
-45 29 -72 18z"/>
<path d="M1840 725 c0 -42 -11 -58 -25 -35 -3 6 -19 10 -34 10 -39 0 -75 -41
-75 -85 0 -63 74 -110 113 -72 11 10 14 10 18 0 3 -7 11 -13 19 -13 11 0 14
23 14 120 0 100 -2 120 -15 120 -11 0 -15 -12 -15 -45z m-12 -67 c7 -7 12 -26
12 -43 0 -37 -16 -55 -49 -55 -52 0 -78 54 -44 92 18 20 63 24 81 6z"/>
<path d="M383 746 c-66 -30 -84 -123 -34 -178 26 -30 35 -33 84 -33 31 0 61 6
70 14 22 18 24 91 2 91 -10 0 -15 -10 -15 -34 0 -26 -5 -35 -22 -40 -43 -11
-69 -6 -93 19 -31 30 -32 73 -3 110 19 25 26 27 75 23 38 -3 53 -1 53 8 0 17
-8 21 -50 28 -21 4 -48 0 -67 -8z"/>
<path d="M1120 640 c0 -67 4 -110 10 -110 6 0 10 20 10 45 l0 45 50 0 c43 0
50 3 50 20 0 17 -7 20 -50 20 -49 0 -50 1 -50 30 l0 30 60 0 c47 0 60 3 60 15
0 12 -14 15 -70 15 l-70 0 0 -110z"/>
<path d="M570 632 c0 -54 4 -72 18 -85 23 -21 51 -22 80 -1 20 14 22 14 22 0
0 -9 7 -16 15 -16 12 0 15 16 15 85 0 69 -3 85 -15 85 -11 0 -15 -13 -15 -53
0 -66 -16 -90 -55 -85 -30 3 -30 4 -33 71 -2 51 -6 67 -17 67 -12 0 -15 -15
-15 -68z"/>
<path d="M780 615 c0 -69 3 -85 15 -85 11 0 15 13 15 54 0 52 16 86 41 86 5 0
9 7 9 15 0 19 -9 19 -32 -2 -17 -15 -18 -15 -18 0 0 10 -7 17 -15 17 -12 0
-15 -16 -15 -85z"/>
<path d="M902 629 c3 -55 8 -74 23 -85 25 -19 54 -18 77 3 17 15 18 15 18 0 0
-10 7 -17 15 -17 12 0 15 16 15 85 0 69 -3 85 -15 85 -12 0 -15 -13 -15 -58 0
-62 -11 -82 -45 -82 -34 0 -45 20 -45 82 0 47 -3 58 -16 58 -14 0 -16 -11 -12
-71z"/>
<path d="M1300 632 c0 -54 4 -72 18 -85 23 -21 51 -22 80 -1 20 14 22 14 22 0
0 -9 7 -16 15 -16 12 0 15 16 15 85 0 69 -3 85 -15 85 -11 0 -15 -13 -15 -53
0 -66 -16 -90 -55 -85 -30 3 -30 4 -33 71 -2 51 -6 67 -17 67 -12 0 -15 -15
-15 -68z"/>
<path d="M1510 615 c0 -69 3 -85 15 -85 12 0 15 13 15 58 0 62 11 82 45 82 34
0 45 -20 45 -82 0 -47 3 -58 16 -58 25 0 16 137 -11 156 -25 19 -54 18 -77 -3
-17 -15 -18 -15 -18 0 0 10 -7 17 -15 17 -12 0 -15 -16 -15 -85z"/>
<path d="M1946 687 c-29 -22 -17 -58 29 -81 51 -27 47 -41 -11 -39 -30 1 -44
-2 -41 -10 6 -20 54 -32 85 -21 22 8 27 15 27 44 0 32 -3 36 -43 50 -47 16
-50 34 -6 38 16 2 36 5 44 8 13 4 13 6 0 14 -22 14 -63 12 -84 -3z"/>
<path d="M623 350 c0 -61 1 -67 6 -30 5 36 10 45 26 45 16 0 21 -9 26 -45 l7
-45 -2 50 c-1 46 -3 50 -26 50 -18 0 -27 7 -31 25 -4 14 -6 -9 -6 -50z"/>
<path d="M912 350 c0 -41 2 -68 5 -60 2 8 7 22 9 30 4 10 11 6 30 -15 18 -21
22 -24 14 -8 -5 12 -15 25 -21 28 -7 5 -2 16 12 31 12 13 18 24 12 24 -5 0
-18 -10 -29 -21 l-19 -21 -6 43 c-5 36 -6 29 -7 -31z"/>
<path d="M1423 350 c0 -41 2 -58 4 -37 2 20 2 54 0 75 -2 20 -4 3 -4 -38z"/>
<path d="M282 343 c0 -38 3 -53 5 -35 5 40 27 42 43 2 7 -16 16 -30 21 -30 5
0 2 14 -7 32 -11 22 -13 33 -5 36 6 2 11 14 11 27 0 23 -17 35 -51 35 -17 0
-19 -7 -17 -67z m53 32 c0 -13 -8 -21 -22 -23 -19 -3 -23 1 -23 23 0 22 4 26
23 23 14 -2 22 -10 22 -23z"/>
<path d="M507 403 c19 -4 23 -12 26 -66 l3 -62 2 62 c2 55 4 62 25 66 12 2 0
4 -28 4 -27 0 -40 -2 -28 -4z"/>
<path d="M1082 343 c0 -38 3 -53 5 -35 5 40 27 42 43 2 7 -16 16 -30 21 -30 5
0 2 14 -7 32 -11 22 -13 33 -5 36 6 2 11 14 11 27 0 23 -17 35 -51 35 -17 0
-19 -7 -17 -67z m53 32 c0 -13 -8 -21 -22 -23 -19 -3 -23 1 -23 23 0 22 4 26
23 23 14 -2 22 -10 22 -23z"/>
<path d="M1530 345 l0 -65 38 2 c36 1 36 1 5 5 -27 4 -33 9 -33 28 0 18 6 25
28 28 l27 4 -27 2 c-23 1 -28 6 -28 25 0 20 6 25 33 29 31 4 31 4 -5 5 l-38 2
0 -65z"/>
<path d="M1918 390 c-9 -27 7 -105 22 -106 9 0 10 1 3 3 -8 3 -13 21 -13 44 0
30 4 39 18 40 13 0 14 2 2 6 -8 3 -18 10 -21 16 -4 5 -8 4 -11 -3z"/>
<path d="M1729 382 c-7 -46 9 -102 29 -102 16 1 15 2 0 11 -22 12 -23 52 -3
72 12 13 12 15 -5 20 -11 3 -20 2 -21 -1z"/>
<path d="M402 368 c-7 -7 -12 -24 -12 -40 0 -30 29 -52 58 -45 13 4 13 5 -3 6
-21 1 -45 19 -45 33 0 4 16 8 35 8 22 0 35 5 35 13 0 18 -21 37 -40 37 -9 0
-21 -5 -28 -12z m52 -13 c4 -11 -2 -15 -26 -15 -26 0 -29 2 -18 15 7 8 18 15
25 15 7 0 15 -7 19 -15z"/>
<path d="M743 330 c0 -30 2 -43 4 -27 2 15 2 39 0 55 -2 15 -4 2 -4 -28z"/>
<path d="M792 325 c1 -42 2 -44 5 -13 8 73 62 78 65 6 l1 -43 4 38 c5 47 -10
67 -48 64 -28 -2 -29 -3 -27 -52z"/>
<path d="M1202 368 c-15 -15 -15 -61 0 -76 15 -15 58 -16 58 -1 0 5 -5 7 -10
4 -16 -10 -50 5 -50 21 0 9 11 14 30 14 23 0 30 5 30 19 0 28 -37 40 -58 19z
m46 -15 c2 -8 -6 -13 -22 -13 -25 0 -33 10 -19 24 10 10 36 3 41 -11z"/>
<path d="M1316 372 c-3 -5 4 -8 16 -8 34 1 32 -21 -2 -28 -26 -5 -31 -10 -28
-28 2 -18 10 -23 36 -24 l33 -1 -3 46 c-3 38 -7 47 -25 49 -11 2 -24 -1 -27
-6z m44 -57 c0 -9 -7 -18 -16 -22 -18 -7 -39 11 -30 26 11 17 46 13 46 -4z"/>
<path d="M1643 373 c-22 -8 -14 -31 14 -45 31 -15 29 -33 -4 -33 -12 1 -19 -3
-17 -7 12 -19 64 0 64 24 0 4 -14 15 -31 24 -32 16 -30 28 6 37 l20 5 -20 0
c-11 0 -26 -2 -32 -5z"/>
<path d="M1838 373 c28 -6 29 -31 1 -35 -12 -2 -27 -11 -33 -20 -15 -25 5 -42
39 -34 24 6 26 11 23 49 -3 37 -6 42 -28 44 -22 1 -22 1 -2 -4z m22 -58 c0 -9
-7 -18 -16 -22 -18 -7 -39 11 -30 26 11 17 46 13 46 -4z"/>
<path d="M2002 368 c-7 -7 -12 -24 -12 -38 0 -14 5 -31 12 -38 14 -14 44 -16
52 -4 2 4 -7 8 -22 7 -17 0 -28 6 -30 18 -3 13 3 17 27 17 19 0 31 5 31 13 0
16 -20 37 -35 37 -6 0 -16 -5 -23 -12z m46 -15 c2 -8 -6 -13 -22 -13 -25 0
-33 10 -19 24 10 10 36 3 41 -11z"/>
</g>
</svg>
